<svg width="33" height="45" viewBox="0 0 33 45" fill="none" xmlns="http://www.w3.org/2000/svg">
<path d="M30.2987 22.9798L27.5847 20.2659C26.9396 19.7097 26.5614 18.8866 26.5392 17.9746C26.4947 16.9735 26.8951 15.9724 27.6292 15.2383L30.2987 12.5688C32.6123 10.2553 33.4799 8.03071 32.7457 6.2733C32.0339 4.53813 29.8316 3.58156 26.5837 3.58156H3.33686V1.66843C3.33686 0.756355 2.58051 0 1.66843 0C0.756355 0 0 0.756355 0 1.66843V42.823C0 43.7351 0.756355 44.4915 1.66843 44.4915C2.58051 44.4915 3.33686 43.7351 3.33686 42.823V31.9671H26.5837C29.7871 31.9671 31.9449 30.9883 32.679 29.2309C33.4131 27.4735 32.5678 25.2712 30.2987 22.9798Z" fill="#D9D9D9"/>
</svg>
