<svg width="35" height="41" viewBox="0 0 35 41" fill="none" xmlns="http://www.w3.org/2000/svg">
<path d="M17.5 5.34576C7.85178 5.34576 0 13.1975 0 22.8457C0 32.4939 7.85178 40.3658 17.5 40.3658C27.1482 40.3658 35 32.5141 35 22.8658C35 13.2177 27.1482 5.34576 17.5 5.34576ZM19.0139 22.1998C19.0139 23.0273 18.3276 23.7136 17.5 23.7136C16.6725 23.7136 15.9862 23.0273 15.9862 22.1998V12.1076C15.9862 11.28 16.6725 10.5937 17.5 10.5937C18.3276 10.5937 19.0139 11.28 19.0139 12.1076V22.1998Z" fill="#D9D9D9"/>
<path d="M23.3344 2.92676H11.6678C10.8604 2.92676 10.2145 2.28085 10.2145 1.47347C10.2145 0.666089 10.8604 0 11.6678 0H23.3344C24.1418 0 24.7877 0.645905 24.7877 1.45329C24.7877 2.26067 24.1418 2.92676 23.3344 2.92676Z" fill="#D9D9D9"/>
</svg>
